<?xml version="1.0" encoding="UTF-8"?>
<!DOCTYPE svg PUBLIC "-//W3C//DTD SVG 1.1//EN" "http://www.w3.org/Graphics/SVG/1.1/DTD/svg11.dtd">
<!-- Creator: CorelDRAW -->
<svg xmlns="http://www.w3.org/2000/svg" xml:space="preserve" width="60px" height="60px" version="1.1" style="shape-rendering:geometricPrecision; text-rendering:geometricPrecision; image-rendering:optimizeQuality; fill-rule:evenodd; clip-rule:evenodd"
viewBox="0 0 295.438 295.438"
 xmlns:xlink="http://www.w3.org/1999/xlink"
 xmlns:xodm="http://www.corel.com/coreldraw/odm/2003">
 <defs>
  <style type="text/css">
   <![CDATA[
    .fil0 {fill:url(#id0)}
   ]]>
  </style>
  <radialGradient id="id0" gradientUnits="userSpaceOnUse" gradientTransform="matrix(0.837339 -1.24705 -0.720402 -0.891282 110 402)" cx="138.857" cy="121.129" r="28.561" fx="138.857" fy="121.129">
   <stop offset="0" style="stop-opacity:1; stop-color:#009D4C"/>
   <stop offset="0.560784" style="stop-opacity:1; stop-color:#0CA448"/>
   <stop offset="1" style="stop-opacity:1; stop-color:#17AA44"/>
  </radialGradient>
 </defs>
 <g id="Layer_x0020_1">
  <metadata id="CorelCorpID_0Corel-Layer"/>
  <path class="fil0" d="M190.14 195.969l16.577 56.554c1.586,5.198 2.902,8.631 3.949,10.252 1.048,1.669 2.663,2.766 4.818,3.291 4.219,1.048 6.313,4.434 6.313,10.203 0,6.819 -2.573,11.683 -7.72,14.688 -5.146,2.955 -13.554,4.435 -25.254,4.481 -13.194,-0.046 -22.979,-0.907 -29.352,-2.67 -2.933,-0.858 -5.236,-2.526 -6.972,-5.102 -1.735,-2.575 -2.574,-5.675 -2.574,-9.299 0,-2.813 0.45,-4.958 1.347,-6.484 0.898,-1.525 2.574,-2.958 5.057,-4.293 2.722,-1.478 4.099,-4.005 4.099,-7.534 0,-6.246 -2.363,-9.918 -7.091,-11.015 -5.087,-1.142 -12.238,-1.669 -21.484,-1.669 -7.779,0 -12.418,0.717 -13.943,2.241 -0.928,0.907 -1.736,2.575 -2.454,5.008 -0.688,2.431 -1.048,4.767 -1.048,7.009 0,2.004 0.24,3.339 0.749,3.958 0.508,0.619 2.124,1.621 4.877,3.005 3.561,1.67 5.326,5.006 5.326,10.061 0,11.062 -8.318,16.641 -24.984,16.641 -9.456,0 -16.398,-1.048 -20.856,-3.1 -4.099,-1.953 -6.133,-6.245 -6.133,-12.826 0,-2.909 0.448,-5.15 1.346,-6.724 0.927,-1.572 2.544,-3.051 4.877,-4.339 3.8,-2.145 6.673,-5.15 8.647,-9.013 1.945,-3.861 4.728,-12.11 8.349,-24.796l12.387 -43.154c4.548,-15.831 7.6,-27.705 9.156,-35.572 1.526,-7.869 2.334,-15.546 2.394,-23.128 0.025,-3.384 0.091,-6.327 0.205,-8.835 -6.738,3.13 -11.14,6.021 -25.665,7.614 -15.562,1.707 -32.056,0.943 -45.54,-4.391 -13.485,-5.331 -24.037,-15.221 -32.243,-28.257 -8.207,-13.037 -14.067,-29.223 -16.218,-46.85 -2.151,-17.626 -0.594,-36.694 0.391,-45.472 0.985,-8.781 1.397,-7.275 2.808,-3.266 1.413,4.007 3.825,10.515 8.946,14.625 5.122,4.11 12.953,5.821 31.102,8.337 18.147,2.516 52.257,8.347 64.501,20.533 12.245,12.186 16.191,19.152 20.077,27.139 3.886,7.987 8.461,18.597 8.802,20.934 0.381,2.042 0.945,5.324 1.267,7.935 1.144,-5.588 4.255,-14.758 6.071,-20.403 4.179,-9.247 5.632,-15.119 16.642,-30.003 11.01,-14.883 23.923,-28.701 36.752,-36.418 12.831,-7.717 25.632,-9.408 38.17,-6.658 12.538,2.749 24.813,9.944 34.964,21.469 10.15,11.526 18.176,27.386 21.668,34.922 3.492,7.537 2.45,6.75 -0.558,4.935 -3.011,-1.813 -7.988,-4.657 -13.868,-3.312 -5.881,1.347 -12.662,6.881 -27.679,20.812 -15.016,13.928 -43.771,39.272 -58.969,40.694 -12.724,1.192 -19.258,0.086 -25.046,-1.878 6.312,15.302 13.985,38.335 23.017,69.12zm-58.349 18.894l17.205 0c3.141,0 4.728,-1.145 4.728,-3.386 0,-3.052 -2.185,-10.587 -6.583,-22.602 -1.975,-5.484 -3.501,-9.203 -4.548,-11.064 -1.077,-1.859 -2.184,-2.765 -3.351,-2.765 -2.095,0 -3.86,3.1 -5.237,9.346 -0.239,0.859 -1.107,4.148 -2.543,9.918 -2.454,9.489 -3.68,15.164 -3.68,17.023 0,2.337 1.316,3.53 4.009,3.53zm7.185 -117.081l-0.072 -0.675 0.195 -0.018 -0.123 0.693z"/>
 </g>
</svg>
